<?xml version="1.0" encoding="iso-8859-1"?>
<!-- Generator: Adobe Illustrator 19.0.0, SVG Export Plug-In . SVG Version: 6.00 Build 0)  -->
<!-- License: CC0. Made by SVG Repo: https://www.svgrepo.com/svg/207597/network-workers -->
<svg version="1.1" id="Layer_1" xmlns="http://www.w3.org/2000/svg" xmlns:xlink="http://www.w3.org/1999/xlink" x="0px" y="0px"
	 viewBox="0 0 512.001 512.001" style="enable-background:new 0 0 512.001 512.001;" xml:space="preserve">
<path style="fill:#ffcc32;" d="M130.352,32.702c0,0-2.446,4.728,7.337,9.784c3.984,2.058,11.292,4.062,18.556,5.715l0.699-10.715
	c0.964-14.774-10.759-27.286-25.563-27.286h-23.583c-14.804,0-26.527,12.512-25.564,27.286l1.048,16.072
	C120.438,51.49,130.352,32.702,130.352,32.702z"/>
<path style="fill:#FFE6B8;" d="M137.689,42.486c-9.784-5.055-7.337-9.784-7.337-9.784s-9.913,18.788-47.069,20.854l2.448,37.53
	c0.754,11.562,7.356,21.94,17.508,27.524l0,0c10.182,5.6,22.522,5.6,32.705,0l0,0c10.152-5.584,16.753-15.962,17.508-27.524
	l2.797-42.887C148.981,46.547,141.673,44.543,137.689,42.486z"/>
<path style="fill:#ffcc32;" d="M213.032,195.113c-4.189-23.125-22.239-40.761-44.644-44.98c-3.372-0.635-6.841-0.969-10.377-0.969
	h-11.763l-26.66,26.66l-26.66-26.66H81.167c-3.536,0-7.006,0.334-10.377,0.969c-22.405,4.218-40.454,21.856-44.644,44.98
	l-3.905,21.559h194.696L213.032,195.113z"/>
<path style="fill:#ffcc32;" d="M403.172,317.831c0,0-2.446,4.728,7.337,9.784c3.984,2.058,11.292,4.062,18.556,5.715l0.699-10.715
	c0.964-14.774-10.759-27.286-25.564-27.286h-23.583c-14.804,0-26.527,12.512-25.564,27.286l1.048,16.072
	C393.26,336.619,403.172,317.831,403.172,317.831z"/>
<path style="fill:#FFE6B8;" d="M410.511,327.615c-9.784-5.055-7.337-9.784-7.337-9.784s-9.913,18.788-47.069,20.854l2.448,37.53
	c0.754,11.562,7.356,21.939,17.508,27.524l0,0c10.182,5.6,22.522,5.6,32.705,0l0,0c10.152-5.584,16.753-15.962,17.508-27.524
	l2.797-42.887C421.802,331.676,414.494,329.672,410.511,327.615z"/>
<path style="fill:#ffcc32;" d="M485.852,480.242c-4.189-23.125-22.239-40.761-44.644-44.98c-3.372-0.635-6.841-0.969-10.377-0.969
	h-11.763l-26.66,26.66l-26.66-26.66h-11.763c-3.536,0-7.006,0.335-10.377,0.969c-22.405,4.218-40.454,21.856-44.644,44.98
	l-3.903,21.559h194.696L485.852,480.242z"/>
<g>
	<path style="fill:#4D3D36;" d="M73.105,54.22C73.105,54.221,73.105,54.221,73.105,54.22l2.447,37.53
		c0.986,15.114,9.499,28.496,22.77,35.796c6.659,3.664,13.962,5.494,21.268,5.494c7.304,0,14.609-1.832,21.267-5.493
		c13.272-7.3,21.784-20.681,22.771-35.797l2.797-42.887l0.699-10.714c0.642-9.845-2.859-19.621-9.604-26.821
		C150.774,4.13,141.247,0,131.381,0h-23.583C97.933,0,88.406,4.13,81.66,11.328c-6.745,7.201-10.245,16.976-9.604,26.821
		L73.105,54.22z M131.026,109.673c-7.162,3.938-15.713,3.938-22.874,0c-7.137-3.927-11.715-11.122-12.245-19.25L94.1,62.704
		c16.773-2.455,27.814-8.199,34.787-13.621c1.247,0.868,2.621,1.689,4.119,2.463c2.907,1.502,7.035,2.986,12.507,4.492
		l-2.243,34.386C142.742,98.551,138.164,105.747,131.026,109.673z M146.788,35.139c-2.515-0.818-3.813-1.403-4.417-1.717
		c-0.455-0.235-0.827-0.449-1.155-0.647l2.385-6.359C145.554,28.942,146.656,31.956,146.788,35.139z M96.546,25.276
		c2.947-3.145,6.943-4.877,11.253-4.877h16.275l-2.911,7.763c-1.469,2.092-8.673,10.831-28.395,14.121l-0.356-5.461
		C92.131,32.521,93.599,28.42,96.546,25.276z"/>
	<path style="fill:#4D3D36;" d="M224.765,223.211c1.938-2.32,2.747-5.381,2.208-8.355l-3.905-21.56c0,0,0,0,0-0.001
		c-4.852-26.779-26.068-48.152-52.791-53.184c-4.033-0.76-8.159-1.145-12.266-1.145h-11.763c-2.705,0-5.3,1.075-7.212,2.987
		l-19.447,19.447l-19.447-19.447c-1.912-1.912-4.507-2.987-7.212-2.987H81.168c-4.106,0-8.233,0.386-12.264,1.145
		c-26.725,5.032-47.94,26.405-52.792,53.185l-3.906,21.56c-0.539,2.974,0.269,6.035,2.208,8.355
		c1.938,2.319,4.805,3.662,7.828,3.662h194.695C219.96,226.871,222.828,225.531,224.765,223.211z M34.455,206.473l1.729-9.542
		c3.355-18.517,18.021-33.296,36.497-36.774c2.791-0.526,5.646-0.792,8.488-0.792h7.538l23.671,23.672
		c3.983,3.982,10.441,3.982,14.425,0l23.671-23.672h7.538c2.841,0,5.696,0.267,8.49,0.792c18.474,3.478,33.14,18.257,36.495,36.774
		l1.729,9.542H34.455z"/>
	<path style="fill:#4D3D36;" d="M404.202,285.129h-23.583c-9.866,0-19.393,4.13-26.138,11.328
		c-6.745,7.201-10.245,16.976-9.604,26.82l1.047,16.072l2.448,37.53c0.986,15.115,9.499,28.498,22.771,35.798
		c6.658,3.661,13.963,5.492,21.267,5.492s14.609-1.831,21.268-5.493c13.272-7.3,21.783-20.681,22.77-35.797l2.797-42.887
		l0.699-10.714c0.642-9.845-2.859-19.62-9.604-26.821C423.594,289.258,414.067,285.129,404.202,285.129z M416.422,311.546
		c1.953,2.524,3.057,5.538,3.187,8.722c-2.515-0.819-3.815-1.404-4.417-1.717c-0.455-0.235-0.827-0.449-1.155-0.647L416.422,311.546
		z M369.367,310.405c2.947-3.145,6.943-4.877,11.252-4.877h16.275l-2.911,7.763c-1.469,2.092-8.673,10.831-28.395,14.122
		l-0.356-5.462C364.952,317.649,366.421,313.549,369.367,310.405z M403.848,394.802c-7.162,3.939-15.714,3.938-22.875,0
		c-7.137-3.926-11.715-11.121-12.245-19.25l-1.808-27.718c16.772-2.456,27.814-8.2,34.786-13.621
		c1.248,0.868,2.622,1.689,4.123,2.464c2.907,1.501,7.035,2.985,12.505,4.49l-2.243,34.386
		C415.563,383.681,410.985,390.876,403.848,394.802z"/>
	<path style="fill:#4D3D36;" d="M499.795,499.982l-3.906-21.559v0.001c-4.851-26.779-26.067-48.152-52.793-53.185
		c-4.037-0.76-8.163-1.145-12.263-1.145h-11.762c-2.705,0-5.3,1.075-7.212,2.987l-19.448,19.447l-19.447-19.447
		c-1.912-1.912-4.507-2.987-7.212-2.987H353.99c-4.1,0-8.226,0.385-12.265,1.145c-26.725,5.033-47.94,26.407-52.792,53.185
		l-3.906,21.559c-0.539,2.975,0.269,6.036,2.208,8.356c1.938,2.319,4.805,3.661,7.828,3.661h194.696c3.023,0,5.89-1.341,7.828-3.661
		C499.525,506.018,500.333,502.957,499.795,499.982z M307.275,491.602l1.729-9.541c3.355-18.517,18.021-33.296,36.494-36.775
		c2.798-0.526,5.653-0.792,8.491-0.792h7.538l23.671,23.672c1.912,1.912,4.507,2.987,7.212,2.987s5.3-1.075,7.212-2.987
		l23.672-23.672h7.537c2.837,0,5.694,0.267,8.49,0.792c18.474,3.479,33.14,18.258,36.495,36.775c0,0,0,0,0,0.001l1.729,9.54H307.275
		z"/>
	<path style="fill:#4D3D36;" d="M452.047,244.794c-5.626,0.287-9.954,5.079-9.668,10.705c0.17,3.339,0.256,6.733,0.256,10.086
		c0,5.632,4.566,10.199,10.199,10.199s10.199-4.567,10.199-10.199c0-3.697-0.095-7.439-0.283-11.123
		C462.466,248.836,457.658,244.492,452.047,244.794z"/>
	<path style="fill:#000000;" d="M260.677,71.084c80.098,5.223,148.671,58.529,173.017,135.955c1.37,4.356,5.391,7.143,9.727,7.143
		c1.014,0,2.044-0.152,3.062-0.473c5.374-1.689,8.36-7.416,6.67-12.789c-13.448-42.765-40.746-81.147-76.867-108.075
		c-33.7-25.123-73.165-39.562-114.87-42.157l6.034-6.034c3.983-3.983,3.983-10.441,0-14.425c-3.983-3.982-10.441-3.982-14.425,0
		l-23.815,23.815c-3.983,3.983-3.983,10.441,0,14.425l23.815,23.815c1.992,1.991,4.602,2.987,7.212,2.987s5.221-0.996,7.212-2.987
		c3.983-3.983,3.983-10.441,0-14.425L260.677,71.084z"/>
	<path style="fill:#000000;" d="M237.482,437.86c-3.983-3.982-10.441-3.982-14.425,0c-3.983,3.983-3.983,10.441,0,14.425
		l7.464,7.464c-99.465-8.73-177.746-92.47-177.746-194.163c0-5.632-4.566-10.199-10.199-10.199s-10.199,4.567-10.199,10.199
		c0,112.259,86.355,204.712,196.123,214.462l-5.443,5.443c-3.983,3.983-3.983,10.441,0,14.425c1.992,1.991,4.602,2.987,7.212,2.987
		c2.61,0,5.221-0.996,7.212-2.987l23.815-23.815c3.983-3.983,3.983-10.441,0-14.425L237.482,437.86z"/>
</g>
</svg>
